<svg xmlns="http://www.w3.org/2000/svg" viewBox="0 0 4388.46 3376.05"><defs><style>.cls-1{fill:#fff;}</style></defs><g id="Layer_2" data-name="Layer 2"><g id="Layer_1-2" data-name="Layer 1"><path class="cls-1" d="M0,1674.7,467.4,1203c-516.7,528,676.94,671,676.94,671l901.14,893.15c-68.62-63.63-375.11-324.81-776.88-307.82-429.75,18-787.88-310.16-936.13-455.41-9.66-9.66-18.65-18.32-26.31-26Z"/><path class="cls-1" d="M1592.75,3252.79,332.47,2003.84c148.25,145.25,506.38,473.4,936.13,455.41,401.77-17,708.26,244.19,776.88,307.82,9.33,9,14.33,14,14.33,14Z"/><path class="cls-1" d="M1144.34,1873.92S-49.3,1731,467.4,1203l5-5L1968.2,1425.84S1760.65,1951.54,1144.34,1873.92Z"/><path class="cls-1" d="M1099.36,565.34l467.4-471.73c586,586-39.64,891.15,401.44,1332.23Z"/><path class="cls-1" d="M2692.11,2143.1,1144.34,1873.92C2167.41,2052.48,3134.52,1681,3158.84,1671.7Z"/><path class="cls-1" d="M1144.34,1873.92c616.31,77.62,823.86-448.08,823.86-448.08,294.49-526,1150,209.88,1189.64,244.2l1.33,1.33-.33.33C3134.52,1681,2167.41,2052.48,1144.34,1873.92Z"/><path class="cls-1" d="M1566.76,93.61,3157.84,1670c-39.64-34.32-895.15-770.23-1189.64-244.2C1527.12,984.76,2152.76,679.61,1566.76,93.61Z"/><path class="cls-1" d="M1795.3,3376.05l9-9c61.63-60.63,370.12-347.13,813.53-347.13,428.42,0,615-153.91,646.29-182.56l-148.58,151.91-377.78,386.78Z"/><path class="cls-1" d="M3181.16,1416.85,1795.3,0h942.12s2,2,6,6.33c37.65,40.31,236.2,274.51,201.89,681.61C2912.65,1073.38,3038.24,1263.6,3181.16,1416.85Z"/><path class="cls-1" d="M1804.29,3367.05l432.42-442.41,407.76-416.76L3446.34,1688s447.74,393.11,228.87,729.25l-88.62,90.61L3268.78,2832.7l-4.67,4.66c-31.31,28.65-217.87,182.56-646.29,182.56C2174.41,3019.92,1865.92,3306.42,1804.29,3367.05Z"/><path class="cls-1" d="M2743.41,6.33l1174,1200.31L4388.46,1688,3917.4,2169.75l-242.19,247.52C3894.08,2081.13,3446.34,1688,3446.34,1688l-193.22-197.55-14.32-14.32-43.31-44.31c-4.67-5-9.33-10-14.33-15-142.92-153.25-268.51-343.47-235.86-728.91C2979.61,280.84,2781.06,46.64,2743.41,6.33Z"/></g></g></svg>